#!OML:ASF H:\Terrain\Patient Classification 1\PLAYGROUND\JustinFriday\JustinFriday.ASF
:FULLY-SPECIFIED
:DEGREES
1243
root 12.7841 21.8936 15.3536 121.851 6.58022 -181.605
lowerback 42.2111 -0.340391 3.90499
upperback 1.39048 3.01294 0.860238
thorax -18.9581 1.48102 -2.80961
lowerneck 5.61729 -1.08474 -9.15915
upperneck 20.382 -5.00472 6.09437
head 5.57154 -3.8157 3.21704
rclavicle 2.61402e-014 5.56597e-015
rhumerus 77.6559 -0.560711 -68.1559
rradius 57.5435
rwrist 39.5391
rhand -10.0528 -22.9902
rfingers 7.12502
rthumb 15.9328 -412.355
lclavicle 2.61402e-014 5.56597e-015
lhumerus 74.2792 7.35055 66.1403
lradius 50.7886
lwrist -41.6149
lhand -7.57018 -12.0042
lfingers 7.12502
lthumb 18.3224 17.1529
rfemur -59.8497 -19.6449 29.4933
rtibia 124.829
rfoot -24.978 -5.64856
rtoes -5.58466
lfemur -83.3099 10.7561 -19.1326
ltibia 73.66
lfoot -24.0674 -3.18256
ltoes -32.2855
1244
root 12.7918 21.9393 15.1727 120.552 6.4886 -181.753
lowerback 42.4612 -0.414371 3.91245
upperback 1.58211 2.94449 0.646872
thorax -18.7951 1.47737 -3.0263
lowerneck 6.22517 -0.986739 -9.17296
upperneck 20.2336 -5.05682 6.57598
head 5.43473 -3.85327 3.38348
rclavicle -3.13583e-014 -7.70291e-015
rhumerus 77.2563 -0.702293 -68.3889
rradius 57.7784
rwrist 39.5131
rhand -9.59125 -23.0406
rfingers 7.12502
rthumb 16.3772 -412.369
lclavicle -3.13583e-014 -7.70291e-015
lhumerus 74.212 7.05457 65.7563
lradius 50.7251
lwrist -41.4553
lhand -7.21035 -12.0112
lfingers 7.12502
lthumb 18.6685 17.113
rfemur -62.5597 -18.9026 29.7699
rtibia 125.109
rfoot -26.319 -1.28794
rtoes 3.74204
lfemur -82.8021 10.7953 -19.0754
ltibia 74.8278
lfoot -23.792 -4.00327
ltoes -30.6467
1245
root 12.7938 21.9886 15.0172 118.961 6.22917 -181.843
lowerback 43.2347 -0.51226 3.84442
upperback 1.63497 2.83387 0.361577
thorax -18.9926 1.44557 -3.28223
lowerneck 7.35691 -0.92943 -8.55868
upperneck 19.9084 -5.14832 6.63655
head 5.14108 -3.91276 3.3179
rclavicle -4.7522e-015 -2.80783e-015
rhumerus 76.5211 -0.902171 -68.6226
rradius 58.0048
rwrist 39.4189
rhand -9.18517 -23.0993
rfingers 7.12502
rthumb 16.7682 -412.395
lclavicle -4.7522e-015 -2.80783e-015
lhumerus 74.0159 6.56203 65.2206
lradius 50.6422
lwrist -41.2107
lhand -6.81896 -12.005
lfingers 7.12502
lthumb 19.0449 17.0826
rfemur -63.1164 -18.5938 30.2527
rtibia 123.737
rfoot -26.8743 -3.39344
rtoes -3.81115
lfemur -81.9031 10.5841 -18.9991
ltibia 76.0365
lfoot -23.4785 -5.01955
ltoes -28.5303
1246
root 12.813 22.0292 14.8028 118.497 6.25415 -182.02
lowerback 42.5861 -0.278705 3.70433
upperback 1.5046 2.91285 0.193411
thorax -18.9252 1.44838 -3.42143
lowerneck 8.4602 -0.943482 -7.59451
upperneck 19.9097 -5.30037 6.1945
head 4.94651 -4.02985 3.02991
rclavicle 1.93815e-014 3.08116e-015
rhumerus 75.6036 -1.07316 -68.7818
rradius 58.1066
rwrist 39.3994
rhand -8.68048 -23.1764
rfingers 7.12502
rthumb 17.254 -412.43
lclavicle 1.93815e-014 3.08116e-015
lhumerus 73.6589 5.91425 64.707
lradius 50.5198
lwrist -41.016
lhand -6.45389 -12.0107
lfingers 7.12502
lthumb 19.396 17.0419
rfemur -65.9798 -17.0475 31.3741
rtibia 123.28
rfoot -27.0154 -3.73593
rtoes -4.86316
lfemur -82.3699 10.9887 -19.3749
ltibia 77.3578
lfoot -23.9255 -3.46821
ltoes -30.2366
1247
root 12.8284 22.0633 14.5389 117.97 6.185 -182.052
lowerback 42.2028 -0.200577 3.62386
upperback 1.36136 2.89001 0.168451
thorax -18.9751 1.41493 -3.38557
lowerneck 9.19391 -0.831162 -7.41977
upperneck 20.2028 -5.33378 6.00132
head 4.91691 -4.12984 2.94876
rclavicle -2.03754e-014 -6.60959e-015
rhumerus 74.8968 -1.01308 -68.5813
rradius 58.18
rwrist 39.1935
rhand -8.21981 -23.3283
rfingers 7.12502
rthumb 17.6973 -412.543
lclavicle -2.03754e-014 -6.60959e-015
lhumerus 73.1959 5.53083 64.5216
lradius 50.4389
lwrist -40.9514
lhand -6.06793 -12.0502
lfingers 7.12502
lthumb 19.7671 16.9647
rfemur -68.5255 -15.7334 32.3989
rtibia 122.685
rfoot -27.4479 -4.84068
rtoes -5.40959
lfemur -82.6249 11.3004 -20.2329
ltibia 78.6371
lfoot -24.2851 2.59443
ltoes -36.8295
1248
root 12.8317 22.1168 14.3481 116.461 6.16936 -182.033
lowerback 43.2668 -0.324683 3.6491
upperback 1.28016 2.86853 0.244307
thorax -19.4579 1.4069 -3.33689
lowerneck 9.74126 -0.659358 -7.68405
upperneck 20.3699 -5.26241 5.99491
head 4.88396 -4.17348 3.00121
rclavicle 1.43622e-014 -1.93815e-014
rhumerus 74.3683 -0.798397 -68.2118
rradius 58.2376
rwrist 38.8081
rhand -7.95622 -23.4545
rfingers 7.12502
rthumb 17.951 -412.646
lclavicle 1.43622e-014 -1.93815e-014
lhumerus 72.7196 5.3704 64.5891
lradius 50.4073
lwrist -40.9397
lhand -5.62023 -12.1256
lfingers 7.12502
lthumb 20.1974 16.8444
rfemur -68.7225 -15.0845 32.6656
rtibia 121.274
rfoot -28.4758 -5.30449
rtoes -4.79985
lfemur -81.663 11.3912 -20.32
ltibia 79.9964
lfoot -24.2311 4.07506
ltoes -37.6922
1249
root 12.8425 22.1689 14.1927 115.486 6.43822 -182.028
lowerback 43.6484 -0.403373 3.64529
upperback 1.65815 2.95959 0.551158
thorax -19.1165 1.52607 -3.03829
lowerneck 7.7816 -0.668446 -8.57814
upperneck 21.3464 -5.13819 6.11445
head 5.51669 -4.11117 3.14758
rclavicle 2.05618e-015 2.54693e-015
rhumerus 74.9959 -0.745497 -67.7485
rradius 58.3018
rwrist 38.5524
rhand -7.59476 -23.5209
rfingers 7.12502
rthumb 18.2987 -412.68
lclavicle 2.05618e-015 2.54693e-015
lhumerus 73.1128 5.86253 65.082
lradius 50.3422
lwrist -41.0805
lhand -5.23825 -12.2117
lfingers 7.12502
lthumb 20.5645 16.7191
rfemur -70.8537 -13.7933 33.0678
rtibia 120.685
rfoot -29.0882 -1.74776
rtoes 4.20425
lfemur -81.2766 11.7406 -19.948
ltibia 81.3436
lfoot -24.6753 1.28287
ltoes -33.5463
1250
root 12.8625 22.2098 14.0271 114.813 6.50302 -181.79
lowerback 43.6178 -0.515843 3.85185
upperback 1.59042 2.90215 0.55009
thorax -19.1859 1.47486 -3.11751
lowerneck 7.89966 -0.49626 -8.70953
upperneck 21.8919 -5.12214 6.38662
head 5.67518 -4.16991 3.25484
rclavicle -2.9358e-014 3.23025e-016
rhumerus 74.607 -0.809761 -67.7403
rradius 58.3129
rwrist 38.4303
rhand -7.11699 -23.5824
rfingers 7.12502
rthumb 18.7583 -412.698
lclavicle -2.9358e-014 3.23025e-016
lhumerus 72.9105 5.59038 64.8976
lradius 50.2419
lwrist -40.9892
lhand -4.83136 -12.2781
lfingers 7.12502
lthumb 20.9554 16.6099
rfemur -71.9084 -12.7663 33.8684
rtibia 118.871
rfoot -29.2173 -4.17012
rtoes -0.699339
lfemur -81.6715 11.8645 -19.7876
ltibia 82.8526
lfoot -23.8481 -0.17395
ltoes -31.8109
